<svg xmlns="http://www.w3.org/2000/svg" viewBox="0 0 680 420" font-family="-apple-system,Segoe UI,Helvetica,Arial,sans-serif">
<rect width="680" height="420" fill="white"/>
<text x="74" y="26" font-size="17" font-weight="700" fill="#1b2733">Recovery: real skill only when real structure exists</text>
<text x="74" y="44" font-size="12" fill="#5b6b7b">Chance-corrected skill vs structure strength (band = +/-1 SE). At sep=0 (pure noise) skill sits at ~0 — no fooling itself.</text>
<line x1="74" y1="356.0" x2="656" y2="356.0" stroke="#e6ebf0"/>
<text x="64" y="360.0" font-size="11" text-anchor="end" fill="#5b6b7b">-0.10</text>
<line x1="74" y1="296.0" x2="656" y2="296.0" stroke="#e6ebf0"/>
<text x="64" y="300.0" font-size="11" text-anchor="end" fill="#5b6b7b">0.02</text>
<line x1="74" y1="236.0" x2="656" y2="236.0" stroke="#e6ebf0"/>
<text x="64" y="240.0" font-size="11" text-anchor="end" fill="#5b6b7b">0.14</text>
<line x1="74" y1="176.0" x2="656" y2="176.0" stroke="#e6ebf0"/>
<text x="64" y="180.0" font-size="11" text-anchor="end" fill="#5b6b7b">0.26</text>
<line x1="74" y1="116.0" x2="656" y2="116.0" stroke="#e6ebf0"/>
<text x="64" y="120.0" font-size="11" text-anchor="end" fill="#5b6b7b">0.38</text>
<line x1="74" y1="56.0" x2="656" y2="56.0" stroke="#e6ebf0"/>
<text x="64" y="60.0" font-size="11" text-anchor="end" fill="#5b6b7b">0.50</text>
<text x="74.0" y="376" font-size="11" text-anchor="middle" fill="#5b6b7b">0.0</text>
<text x="190.4" y="376" font-size="11" text-anchor="middle" fill="#5b6b7b">0.2</text>
<text x="306.8" y="376" font-size="11" text-anchor="middle" fill="#5b6b7b">0.4</text>
<text x="423.2" y="376" font-size="11" text-anchor="middle" fill="#5b6b7b">0.6</text>
<text x="539.6" y="376" font-size="11" text-anchor="middle" fill="#5b6b7b">0.8</text>
<text x="656.0" y="376" font-size="11" text-anchor="middle" fill="#5b6b7b">1.0</text>
<text x="365" y="382" font-size="12" text-anchor="middle" fill="#1b2733">structure strength (0 = pure noise, 1 = strong regimes)</text>
<text transform="translate(20,206) rotate(-90)" font-size="12" text-anchor="middle" fill="#1b2733">recovery skill</text>
<line x1="74" y1="306.0" x2="656" y2="306.0" stroke="#5b6b7b" stroke-dasharray="5 4" stroke-width="1.3"/>
<text x="652" y="301.0" font-size="11" text-anchor="end" fill="#5b6b7b">no skill</text>
<polygon points="74.0,243.8 190.4,125.1 306.8,203.5 423.2,116.7 539.6,163.4 656.0,192.4 656.0,255.0 539.6,231.7 423.2,199.2 306.8,294.3 190.4,221.4 74.0,328.9" fill="#2563eb" fill-opacity="0.13"/>
<polyline points="74.0,286.4 190.4,173.3 306.8,248.9 423.2,158.0 539.6,197.6 656.0,223.7" fill="none" stroke="#2563eb" stroke-width="2.4"/>
<circle cx="74.0" cy="286.4" r="3.2" fill="#2563eb"/>
<circle cx="190.4" cy="173.3" r="3.2" fill="#2563eb"/>
<circle cx="306.8" cy="248.9" r="3.2" fill="#2563eb"/>
<circle cx="423.2" cy="158.0" r="3.2" fill="#2563eb"/>
<circle cx="539.6" cy="197.6" r="3.2" fill="#2563eb"/>
<circle cx="656.0" cy="223.7" r="3.2" fill="#2563eb"/>
<rect x="74" y="393" width="12" height="12" rx="2" fill="#2563eb"/>
<text x="92" y="403" font-size="12" fill="#1b2733">surrogate-gated-nn</text>
</svg>